%
M48
M72
T01C0.0200
T02C0.0354
T03C0.0360
T04C0.0400
T05C0.0472
T06C0.1300
%
T01
X7034Y5750
X6534Y7550
X6734Y9450
X10034Y6550
X11034Y9850
X8834Y13850
X8634Y15250
X9034Y15950
X9634Y16550
X9434Y17250
X7134Y16550
X7034Y17250
X6734Y17950
X5134Y17550
X7034Y15750
X9434Y19950
X9434Y21550
X9334Y22750
X8434Y22650
X9334Y24250
X8434Y24450
X8834Y25350
X9534Y25350
X9634Y26050
X9134Y27750
X8834Y28950
X7434Y27150
X4834Y26250
X4934Y22250
X11934Y26350
X13334Y26050
X14934Y24650
X15334Y25350
X16134Y25450
X16634Y25850
X18434Y24750
X19034Y25450
X18934Y23950
X20734Y25850
X21834Y25450
X22934Y25950
X23834Y27550
X26334Y26550
X31334Y24750
X29234Y20250
X28334Y17350
X28134Y16150
X30134Y15150
X28334Y13450
X29534Y12450
X30634Y13350
X32434Y14050
X31534Y10950
X30034Y10850
X30734Y8550
X29034Y7550
X26834Y7250
X25934Y5150
X25934Y3950
X27534Y1850
X28834Y2950
X28934Y3550
X32134Y4150
X27734Y9850
X26934Y11250
X24034Y8850
X20634Y11950
X19334Y8950
X20034Y7250
X17534Y5250
X18234Y3250
X17934Y2050
X18434Y1350
X22034Y2050
X15334Y7650
X17234Y8250
X15934Y11450
X16434Y12450
X18234Y18550
X22634Y20950
X11834Y29350
X11134Y28750
X8834Y1750
T02
X28834Y21850
X28834Y25850
T03
X21034Y28950
X20034Y28950
X15934Y28950
X14934Y28950
X17934Y15950
X17934Y14950
X15534Y4350
X15534Y3350
T04
X11234Y4050
X10234Y4050
X9234Y4050
X6534Y18950
X6534Y19950
X6534Y20950
X5534Y20950
X5534Y19950
X5534Y18950
X31534Y18850
X31534Y17850
X31534Y16850
X31534Y19850
X31534Y20850
X31534Y21850
T05
X5534Y15719
X5534Y13750
X5534Y11781
T06
X6034Y2850
X30834Y2850
X30934Y27950
X5434Y27950
M30
