G75*
G70*
%OFA0B0*%
%FSLAX24Y24*%
%IPPOS*%
%LPD*%
%AMOC8*
5,1,8,0,0,1.08239X$1,22.5*
%
%ADD10R,0.0472X0.0217*%
%ADD11R,0.0709X0.0630*%
%ADD12R,0.0500X0.0220*%
%ADD13R,0.0220X0.0500*%
%ADD14R,0.0100X0.0450*%
%ADD15R,0.0450X0.0100*%
%ADD16R,0.0433X0.0748*%
%ADD17R,0.0669X0.0276*%
%ADD18R,0.0300X0.0600*%
%ADD19R,0.0660X0.0140*%
%ADD20R,0.0591X0.0591*%
%ADD21R,0.0591X0.0591*%
%ADD22R,0.0236X0.0866*%
%ADD23R,0.0630X0.0709*%
%ADD24R,0.0472X0.0315*%
%ADD25R,0.0315X0.0472*%
%ADD26R,0.0630X0.0354*%
%ADD27R,0.0512X0.0512*%
D10*
X007922Y005776D03*
X007922Y006150D03*
X007922Y006524D03*
X008946Y006524D03*
X008946Y005776D03*
X019122Y003024D03*
X019122Y002650D03*
X019122Y002276D03*
X020146Y002276D03*
X020146Y003024D03*
X022722Y003024D03*
X022722Y002650D03*
X022722Y002276D03*
X023746Y002276D03*
X023746Y003024D03*
D11*
X012634Y005799D03*
X012634Y006901D03*
D12*
X011024Y024148D03*
X011024Y024463D03*
X011024Y024778D03*
X011024Y025093D03*
X011024Y025407D03*
X011024Y025722D03*
X011024Y026037D03*
X011024Y026352D03*
X007644Y026352D03*
X007644Y026037D03*
X007644Y025722D03*
X007644Y025407D03*
X007644Y025093D03*
X007644Y024778D03*
X007644Y024463D03*
X007644Y024148D03*
D13*
X008231Y023560D03*
X008546Y023560D03*
X008861Y023560D03*
X009176Y023560D03*
X009491Y023560D03*
X009806Y023560D03*
X010121Y023560D03*
X010436Y023560D03*
X010436Y026940D03*
X010121Y026940D03*
X009806Y026940D03*
X009491Y026940D03*
X009176Y026940D03*
X008861Y026940D03*
X008546Y026940D03*
X008231Y026940D03*
D14*
X028851Y010123D03*
X029048Y010123D03*
X029245Y010123D03*
X029442Y010123D03*
X029638Y010123D03*
X029835Y010123D03*
X030032Y010123D03*
X030229Y010123D03*
X030426Y010123D03*
X030623Y010123D03*
X030820Y010123D03*
X031016Y010123D03*
X031016Y006777D03*
X030820Y006777D03*
X030623Y006777D03*
X030426Y006777D03*
X030229Y006777D03*
X030032Y006777D03*
X029835Y006777D03*
X029638Y006777D03*
X029442Y006777D03*
X029245Y006777D03*
X029048Y006777D03*
X028851Y006777D03*
D15*
X028260Y007367D03*
X028260Y007564D03*
X028260Y007761D03*
X028260Y007958D03*
X028260Y008155D03*
X028260Y008352D03*
X028260Y008548D03*
X028260Y008745D03*
X028260Y008942D03*
X028260Y009139D03*
X028260Y009336D03*
X028260Y009533D03*
X031607Y009533D03*
X031607Y009336D03*
X031607Y009139D03*
X031607Y008942D03*
X031607Y008745D03*
X031607Y008548D03*
X031607Y008352D03*
X031607Y008155D03*
X031607Y007958D03*
X031607Y007761D03*
X031607Y007564D03*
X031607Y007367D03*
D16*
X026186Y007722D03*
X025281Y007722D03*
X025281Y009178D03*
X026186Y009178D03*
D17*
X006034Y023778D03*
X006034Y024250D03*
X006034Y024722D03*
D18*
X027284Y026950D03*
X028784Y026950D03*
X028784Y028950D03*
X027284Y028950D03*
D19*
X019944Y025760D03*
X019944Y025500D03*
X019944Y025250D03*
X019944Y024990D03*
X019944Y024730D03*
X019944Y024480D03*
X019944Y024220D03*
X019944Y023970D03*
X019944Y023710D03*
X019944Y023450D03*
X019944Y023200D03*
X019944Y022940D03*
X017724Y022940D03*
X017724Y023200D03*
X017724Y023450D03*
X017724Y023710D03*
X017724Y023970D03*
X017724Y024220D03*
X017724Y024480D03*
X017724Y024730D03*
X017724Y024990D03*
X017724Y025250D03*
X017724Y025500D03*
X017724Y025760D03*
D20*
X018434Y021639D03*
X018434Y020261D03*
X013123Y015050D03*
X011745Y015050D03*
X018334Y010139D03*
X018334Y008761D03*
X023245Y014850D03*
X024623Y014850D03*
X011234Y008639D03*
X011234Y007261D03*
D21*
G36*
X013800Y010909D02*
X014217Y010492D01*
X013800Y010075D01*
X013383Y010492D01*
X013800Y010909D01*
G37*
G36*
X014774Y011883D02*
X015191Y011466D01*
X014774Y011049D01*
X014357Y011466D01*
X014774Y011883D01*
G37*
G36*
X013737Y013460D02*
X013963Y012916D01*
X013419Y012690D01*
X013193Y013234D01*
X013737Y013460D01*
G37*
G36*
X012464Y012933D02*
X012690Y012389D01*
X012146Y012163D01*
X011920Y012707D01*
X012464Y012933D01*
G37*
G36*
X016200Y010879D02*
X016744Y010653D01*
X016518Y010109D01*
X015974Y010335D01*
X016200Y010879D01*
G37*
G36*
X015673Y009606D02*
X016217Y009380D01*
X015991Y008836D01*
X015447Y009062D01*
X015673Y009606D01*
G37*
G36*
X019794Y010565D02*
X020338Y010791D01*
X020564Y010247D01*
X020020Y010021D01*
X019794Y010565D01*
G37*
G36*
X020321Y009292D02*
X020865Y009518D01*
X021091Y008974D01*
X020547Y008748D01*
X020321Y009292D01*
G37*
G36*
X021371Y011454D02*
X021788Y011871D01*
X022205Y011454D01*
X021788Y011037D01*
X021371Y011454D01*
G37*
G36*
X022345Y010480D02*
X022762Y010897D01*
X023179Y010480D01*
X022762Y010063D01*
X022345Y010480D01*
G37*
G36*
X023708Y012243D02*
X023934Y012787D01*
X024478Y012561D01*
X024252Y012017D01*
X023708Y012243D01*
G37*
G36*
X022435Y012771D02*
X022661Y013315D01*
X023205Y013089D01*
X022979Y012545D01*
X022435Y012771D01*
G37*
G36*
X022976Y016409D02*
X022750Y016953D01*
X023294Y017179D01*
X023520Y016635D01*
X022976Y016409D01*
G37*
G36*
X024249Y016936D02*
X024023Y017480D01*
X024567Y017706D01*
X024793Y017162D01*
X024249Y016936D01*
G37*
G36*
X022093Y018134D02*
X021676Y018551D01*
X022093Y018968D01*
X022510Y018551D01*
X022093Y018134D01*
G37*
G36*
X023067Y019108D02*
X022650Y019525D01*
X023067Y019942D01*
X023484Y019525D01*
X023067Y019108D01*
G37*
G36*
X021349Y020563D02*
X020805Y020789D01*
X021031Y021333D01*
X021575Y021107D01*
X021349Y020563D01*
G37*
G36*
X020821Y019290D02*
X020277Y019516D01*
X020503Y020060D01*
X021047Y019834D01*
X020821Y019290D01*
G37*
G36*
X016629Y019823D02*
X016085Y019597D01*
X015859Y020141D01*
X016403Y020367D01*
X016629Y019823D01*
G37*
G36*
X016102Y021096D02*
X015558Y020870D01*
X015332Y021414D01*
X015876Y021640D01*
X016102Y021096D01*
G37*
G36*
X014967Y018792D02*
X014550Y018375D01*
X014133Y018792D01*
X014550Y019209D01*
X014967Y018792D01*
G37*
G36*
X013993Y019766D02*
X013576Y019349D01*
X013159Y019766D01*
X013576Y020183D01*
X013993Y019766D01*
G37*
G36*
X012538Y017649D02*
X012312Y017105D01*
X011768Y017331D01*
X011994Y017875D01*
X012538Y017649D01*
G37*
G36*
X013811Y017122D02*
X013585Y016578D01*
X013041Y016804D01*
X013267Y017348D01*
X013811Y017122D01*
G37*
D22*
X019584Y016474D03*
X020084Y016474D03*
X020584Y016474D03*
X021084Y016474D03*
X021084Y014426D03*
X020584Y014426D03*
X020084Y014426D03*
X019584Y014426D03*
D23*
X009085Y007850D03*
X007983Y007850D03*
X019083Y004150D03*
X020185Y004150D03*
X022683Y004150D03*
X023785Y004150D03*
D24*
X027134Y008196D03*
X027134Y008904D03*
X030034Y005604D03*
X030034Y004896D03*
X031034Y004896D03*
X031034Y005604D03*
X032034Y005604D03*
X032034Y004896D03*
X031534Y011996D03*
X031534Y012704D03*
X030634Y012704D03*
X030634Y011996D03*
X021934Y015196D03*
X021934Y015904D03*
X019534Y013304D03*
X019534Y012596D03*
X019534Y011904D03*
X019534Y011196D03*
X011234Y006304D03*
X011234Y005596D03*
X008834Y012296D03*
X008834Y013004D03*
X012434Y028796D03*
X012434Y029504D03*
X013534Y029504D03*
X013534Y028796D03*
X017634Y028796D03*
X017634Y029504D03*
X018534Y029504D03*
X018534Y028796D03*
X027334Y024304D03*
X027334Y023596D03*
D25*
X025588Y027850D03*
X024879Y027850D03*
X024879Y028950D03*
X025588Y028950D03*
X020088Y018050D03*
X019379Y018050D03*
X016488Y016150D03*
X015779Y016150D03*
X015779Y014550D03*
X016488Y014550D03*
X016488Y013150D03*
X015779Y013150D03*
X017479Y013350D03*
X018188Y013350D03*
X018188Y012350D03*
X017479Y012350D03*
X019279Y006250D03*
X019988Y006250D03*
X019988Y005250D03*
X019279Y005250D03*
X021079Y005250D03*
X021788Y005250D03*
X021788Y006250D03*
X021079Y006250D03*
X022879Y006250D03*
X023588Y006250D03*
X023588Y005250D03*
X022879Y005250D03*
X025279Y006650D03*
X025988Y006650D03*
X026879Y005150D03*
X027588Y005150D03*
X027588Y003950D03*
X026879Y003950D03*
X025988Y010250D03*
X025279Y010250D03*
X028179Y011350D03*
X028888Y011350D03*
X031179Y015150D03*
X031888Y015150D03*
X019988Y001350D03*
X019279Y001350D03*
X008788Y009150D03*
X008079Y009150D03*
X012879Y024950D03*
X013588Y024950D03*
D26*
X016155Y018401D03*
X016155Y017299D03*
D27*
X017112Y017850D03*
M02*
