G75*
G70*
%OFA0B0*%
%FSLAX24Y24*%
%IPPOS*%
%LPD*%
%AMOC8*
5,1,8,0,0,1.08239X$1,22.5*
%
%ADD10R,0.0010X0.0040*%
%ADD11R,0.0010X0.0200*%
%ADD12R,0.0010X0.0020*%
%ADD13R,0.0010X0.0350*%
%ADD14R,0.0010X0.0460*%
%ADD15R,0.0010X0.0010*%
%ADD16R,0.0010X0.0550*%
%ADD17R,0.0010X0.0610*%
%ADD18R,0.0010X0.0070*%
%ADD19R,0.0010X0.0590*%
%ADD20R,0.0010X0.0110*%
%ADD21R,0.0010X0.0630*%
%ADD22R,0.0010X0.0770*%
%ADD23R,0.0010X0.0820*%
%ADD24R,0.0010X0.0170*%
%ADD25R,0.0010X0.0680*%
%ADD26R,0.0010X0.0390*%
%ADD27R,0.0010X0.0360*%
%ADD28R,0.0010X0.0320*%
%ADD29R,0.0010X0.0310*%
%ADD30R,0.0010X0.0300*%
%ADD31R,0.0010X0.0280*%
%ADD32R,0.0010X0.0270*%
%ADD33R,0.0010X0.0230*%
%ADD34R,0.0010X0.0240*%
%ADD35R,0.0010X0.0250*%
%ADD36R,0.0010X0.0220*%
%ADD37R,0.0010X0.0210*%
%ADD38R,0.0010X0.0190*%
%ADD39R,0.0010X0.0180*%
%ADD40R,0.0010X0.0160*%
%ADD41R,0.0010X0.0150*%
%ADD42R,0.0010X0.0100*%
%ADD43R,0.0010X0.0060*%
%ADD44R,0.0010X0.0080*%
%ADD45R,0.0010X0.0140*%
%ADD46R,0.0010X0.0120*%
%ADD47R,0.0010X0.0130*%
%ADD48R,0.0010X0.0090*%
%ADD49R,0.0010X0.0050*%
%ADD50R,0.0010X0.0030*%
%ADD51R,0.0010X0.0260*%
%ADD52R,0.0010X0.0290*%
%ADD53R,0.0010X0.0690*%
%ADD54R,0.0010X0.0660*%
%ADD55R,0.0010X0.0790*%
%ADD56R,0.0010X0.0740*%
%ADD57R,0.0010X0.0560*%
%ADD58R,0.0010X0.0480*%
%ADD59R,0.0010X0.0380*%
%ADD60C,0.0000*%
%ADD61C,0.0060*%
%ADD62C,0.0030*%
%ADD63C,0.0080*%
%ADD64C,0.0100*%
%ADD65R,0.0128X0.0167*%
%ADD66R,0.0138X0.0138*%
%ADD67R,0.0138X0.0138*%
%ADD68R,0.0167X0.0128*%
%ADD69C,0.0040*%
%ADD70R,0.0098X0.0394*%
D10*
X024984Y020105D03*
X025054Y020095D03*
X025064Y020095D03*
X025124Y020085D03*
X025134Y020085D03*
X025144Y020085D03*
X025154Y020085D03*
X025204Y020075D03*
X025214Y020075D03*
X025224Y020075D03*
X025234Y020075D03*
X025244Y020075D03*
X025284Y020065D03*
X025294Y020065D03*
X025304Y020065D03*
X025314Y020065D03*
X025304Y020175D03*
X025164Y020235D03*
X025224Y020515D03*
X025214Y020655D03*
X025254Y020695D03*
X025274Y020985D03*
X025284Y020985D03*
X025294Y020985D03*
X025304Y020985D03*
X025364Y020975D03*
X025374Y020975D03*
X025384Y020975D03*
X025204Y020995D03*
X025194Y020995D03*
X025184Y020995D03*
X025164Y020995D03*
X025094Y021005D03*
X024944Y021155D03*
X025574Y021215D03*
X025584Y021185D03*
X025594Y021155D03*
X025604Y021125D03*
X025844Y020915D03*
X025704Y020775D03*
X025714Y020745D03*
X025724Y020705D03*
X025734Y020675D03*
X025814Y020655D03*
X025914Y020545D03*
X025914Y020495D03*
X025844Y020445D03*
X025824Y020225D03*
X025834Y020185D03*
X025854Y020125D03*
X025864Y020095D03*
X025874Y020065D03*
X025944Y020095D03*
X025914Y019925D03*
X025694Y020035D03*
X025654Y020035D03*
X025644Y019985D03*
X025664Y019945D03*
X025684Y020125D03*
X025534Y020285D03*
X025484Y020285D03*
X026314Y019835D03*
X026344Y019755D03*
X025884Y019505D03*
X026674Y020415D03*
X026674Y020565D03*
D11*
X026664Y020485D03*
X026484Y020985D03*
X026454Y019955D03*
X025194Y020505D03*
X024824Y021065D03*
X024774Y020005D03*
D12*
X024974Y020105D03*
X025194Y020245D03*
X025194Y020275D03*
X025264Y020305D03*
X025234Y020575D03*
X025304Y020755D03*
X025314Y020765D03*
X025304Y020785D03*
X025314Y020795D03*
X025614Y020885D03*
X025634Y020905D03*
X025644Y020915D03*
X025654Y020925D03*
X025664Y020935D03*
X025684Y020955D03*
X025624Y020985D03*
X025604Y020965D03*
X025594Y021045D03*
X025584Y021045D03*
X025624Y021075D03*
X025674Y021035D03*
X025834Y021025D03*
X025884Y021015D03*
X025894Y020985D03*
X025884Y020975D03*
X025874Y020965D03*
X025864Y020955D03*
X025884Y020895D03*
X025914Y020885D03*
X025924Y020885D03*
X025964Y020995D03*
X025714Y020875D03*
X025694Y020855D03*
X025684Y020845D03*
X025664Y020825D03*
X025654Y020815D03*
X025634Y020795D03*
X025894Y020565D03*
X025904Y020565D03*
X025934Y020505D03*
X025944Y020505D03*
X025954Y020505D03*
X025964Y020505D03*
X025974Y020505D03*
X025984Y020495D03*
X025984Y020375D03*
X025974Y020365D03*
X025944Y020355D03*
X025934Y020355D03*
X025894Y020295D03*
X025814Y020245D03*
X025744Y020255D03*
X025714Y020135D03*
X025704Y020115D03*
X025704Y020075D03*
X025684Y020075D03*
X025674Y020055D03*
X025654Y020085D03*
X025654Y019995D03*
X025694Y019975D03*
X025674Y019955D03*
X025664Y019905D03*
X025654Y019895D03*
X025634Y019865D03*
X025624Y019875D03*
X025624Y019755D03*
X025844Y019915D03*
X025874Y019925D03*
X025904Y019935D03*
X025974Y019955D03*
X026004Y019965D03*
X025924Y020055D03*
X025904Y020035D03*
X025824Y020025D03*
X025804Y020035D03*
X025854Y020435D03*
X025864Y020435D03*
X025874Y020435D03*
X026304Y019835D03*
X026354Y019755D03*
X026314Y019715D03*
X026104Y019685D03*
X026524Y019965D03*
X026594Y020095D03*
X026644Y020235D03*
X026664Y020655D03*
X024954Y021155D03*
X024904Y021235D03*
X024984Y021305D03*
X024804Y020955D03*
X024704Y020615D03*
X024704Y020385D03*
X024724Y020265D03*
D13*
X024694Y020210D03*
X024694Y020780D03*
X026654Y020490D03*
D14*
X026644Y020495D03*
D15*
X026644Y020770D03*
X026594Y020910D03*
X026574Y020950D03*
X026564Y020970D03*
X026514Y021060D03*
X026474Y021120D03*
X026434Y021170D03*
X026364Y021240D03*
X026304Y021300D03*
X026294Y021310D03*
X026224Y021360D03*
X026144Y021410D03*
X026104Y021430D03*
X026084Y021440D03*
X026064Y021450D03*
X026044Y021460D03*
X025994Y021480D03*
X025934Y021500D03*
X026114Y021300D03*
X025994Y020990D03*
X025984Y020990D03*
X025974Y020990D03*
X025954Y021000D03*
X025944Y021000D03*
X025934Y021000D03*
X025894Y021010D03*
X025874Y021010D03*
X025864Y021020D03*
X025854Y021020D03*
X025844Y021020D03*
X025824Y021030D03*
X025854Y020940D03*
X025864Y020900D03*
X025894Y020890D03*
X025904Y020890D03*
X025934Y020880D03*
X025944Y020880D03*
X025824Y020910D03*
X025694Y020880D03*
X025684Y020880D03*
X025674Y020880D03*
X025664Y020880D03*
X025654Y020880D03*
X025634Y020880D03*
X025674Y020840D03*
X025674Y020790D03*
X025684Y020790D03*
X025694Y020790D03*
X025664Y020790D03*
X025654Y020790D03*
X025654Y020960D03*
X025664Y020960D03*
X025644Y020960D03*
X025634Y020960D03*
X025634Y021000D03*
X025644Y021010D03*
X025644Y021040D03*
X025634Y021040D03*
X025624Y021040D03*
X025614Y021040D03*
X025594Y020960D03*
X025424Y020960D03*
X025414Y021000D03*
X025404Y021000D03*
X025254Y020870D03*
X025204Y020930D03*
X025194Y020940D03*
X025144Y021030D03*
X025084Y021010D03*
X024814Y020950D03*
X024794Y020920D03*
X024784Y020900D03*
X024764Y020850D03*
X024734Y021020D03*
X025254Y020660D03*
X025244Y020630D03*
X025234Y020440D03*
X025244Y020380D03*
X025214Y020260D03*
X025294Y020240D03*
X025304Y020220D03*
X025324Y020190D03*
X025324Y020170D03*
X025344Y020050D03*
X025644Y019940D03*
X025654Y019940D03*
X025654Y019960D03*
X025644Y019900D03*
X025664Y020050D03*
X025684Y020050D03*
X025694Y020070D03*
X025694Y020120D03*
X025694Y020140D03*
X025704Y020140D03*
X025814Y020030D03*
X025834Y020020D03*
X025844Y020020D03*
X025854Y020020D03*
X025864Y020020D03*
X025874Y020020D03*
X025894Y020030D03*
X025914Y020040D03*
X025944Y019950D03*
X025954Y019950D03*
X025964Y019950D03*
X025984Y019960D03*
X025994Y019960D03*
X026014Y019970D03*
X025934Y019940D03*
X025924Y019940D03*
X025894Y019930D03*
X025884Y019930D03*
X025864Y019920D03*
X025854Y019920D03*
X025834Y019910D03*
X025824Y019910D03*
X025964Y019740D03*
X025874Y019590D03*
X025894Y019490D03*
X026144Y019590D03*
X026234Y019780D03*
X026354Y019900D03*
X026444Y020030D03*
X026574Y020050D03*
X026584Y020070D03*
X026614Y020140D03*
X026624Y020170D03*
X025964Y020360D03*
X025954Y020360D03*
X025884Y020570D03*
X025454Y019580D03*
X025404Y019590D03*
X025244Y019650D03*
X025044Y019770D03*
X024974Y019830D03*
X024924Y019890D03*
X024914Y019900D03*
X024884Y019940D03*
X024844Y020000D03*
X024824Y020030D03*
X024754Y020140D03*
X024764Y020150D03*
X024744Y020200D03*
X024714Y020310D03*
D16*
X026634Y020500D03*
D17*
X026624Y020490D03*
D18*
X026614Y020190D03*
X026314Y019770D03*
X025684Y019990D03*
X025674Y020110D03*
X025724Y020170D03*
X025734Y020440D03*
X025284Y020200D03*
X025294Y020180D03*
X025024Y020120D03*
X025294Y020770D03*
X025114Y021000D03*
D19*
X026614Y020530D03*
D20*
X026604Y020170D03*
X026354Y019830D03*
X026074Y019610D03*
X026054Y019600D03*
X026004Y019580D03*
X025994Y019570D03*
X025974Y019560D03*
X025934Y019550D03*
X025904Y019540D03*
X025854Y019530D03*
X025804Y019520D03*
X025754Y019520D03*
X025444Y019520D03*
X025364Y019540D03*
X025324Y019550D03*
X025304Y019560D03*
X025294Y019560D03*
X025274Y019570D03*
X025264Y019570D03*
X025254Y019580D03*
X025244Y019580D03*
X025224Y019590D03*
X025204Y019600D03*
X025194Y019610D03*
X025184Y019610D03*
X025144Y019630D03*
X025134Y019640D03*
X025114Y019650D03*
X025074Y019670D03*
X024904Y019800D03*
X025774Y020440D03*
X025814Y020450D03*
X026174Y021320D03*
X026144Y021340D03*
X026104Y021360D03*
X026094Y021370D03*
X026084Y021370D03*
X026074Y021380D03*
X026064Y021380D03*
X026054Y021390D03*
X026044Y021390D03*
X026034Y021400D03*
X026024Y021400D03*
X026014Y021410D03*
X026004Y021410D03*
X025984Y021420D03*
X025974Y021420D03*
X025964Y021430D03*
X025954Y021430D03*
X025924Y021440D03*
X025894Y021450D03*
X025854Y021460D03*
X025804Y021470D03*
X025704Y021490D03*
X025564Y021490D03*
X025554Y021490D03*
X025534Y021480D03*
X025454Y021470D03*
X025414Y021460D03*
X025404Y021460D03*
X025344Y021440D03*
X025314Y021430D03*
X025274Y021420D03*
X025264Y021410D03*
X025244Y021410D03*
X025174Y021370D03*
X024984Y021230D03*
D21*
X024634Y020500D03*
X026604Y020550D03*
D22*
X026594Y020500D03*
D23*
X026584Y020495D03*
D24*
X026574Y020150D03*
X026444Y019930D03*
X026394Y019870D03*
X026384Y019860D03*
X026374Y019840D03*
X024844Y019890D03*
X024824Y019920D03*
X024844Y021100D03*
X024864Y021120D03*
X024874Y021130D03*
X024884Y021150D03*
X024894Y021160D03*
X026414Y021090D03*
X026424Y021080D03*
D25*
X026574Y020585D03*
X024644Y020505D03*
D26*
X026564Y020220D03*
D27*
X026564Y020765D03*
D28*
X026554Y020175D03*
D29*
X026554Y020810D03*
D30*
X026544Y020135D03*
X025214Y020475D03*
X024704Y020165D03*
X024704Y020825D03*
D31*
X024714Y020855D03*
X026534Y020885D03*
X026544Y020845D03*
D32*
X026534Y020110D03*
D33*
X026524Y020100D03*
X026504Y020040D03*
X026494Y020020D03*
X026514Y020930D03*
X024744Y020060D03*
X024734Y020080D03*
D34*
X024594Y020495D03*
X026524Y020905D03*
D35*
X026514Y020060D03*
D36*
X026484Y020005D03*
X026504Y020945D03*
X024774Y020985D03*
X024734Y020895D03*
D37*
X024764Y020020D03*
X026464Y019970D03*
X026474Y019980D03*
X026494Y020970D03*
D38*
X026474Y021000D03*
X026464Y021020D03*
X026434Y019920D03*
X025224Y020350D03*
X024814Y019940D03*
X024804Y019950D03*
X024794Y019970D03*
X024784Y019980D03*
X024754Y020030D03*
X024794Y021030D03*
D39*
X024814Y021055D03*
X024834Y021085D03*
X024854Y021105D03*
X024684Y020845D03*
X026434Y021065D03*
X026444Y021055D03*
X026454Y021035D03*
X026424Y019915D03*
X026414Y019895D03*
X026404Y019885D03*
D40*
X026364Y019835D03*
X025204Y020435D03*
X024834Y019905D03*
X024854Y019875D03*
X024864Y019865D03*
X024874Y019855D03*
X024674Y020835D03*
X024744Y020895D03*
X024804Y021055D03*
X026374Y021145D03*
X026384Y021135D03*
X026394Y021125D03*
X026404Y021105D03*
D41*
X026364Y021150D03*
X026354Y021170D03*
X024914Y021180D03*
X024754Y020920D03*
X024894Y019830D03*
X024914Y019810D03*
X024924Y019800D03*
X024964Y019770D03*
X026294Y019760D03*
D42*
X026344Y019835D03*
X026144Y019655D03*
X026104Y019615D03*
X025954Y019555D03*
X025944Y019555D03*
X025924Y019545D03*
X025914Y019545D03*
X025844Y019525D03*
X025834Y019525D03*
X025824Y019525D03*
X025794Y019515D03*
X025784Y019515D03*
X025774Y019515D03*
X025764Y019515D03*
X025734Y019505D03*
X025724Y019505D03*
X025714Y019505D03*
X025704Y019505D03*
X025694Y019505D03*
X025684Y019505D03*
X025674Y019505D03*
X025664Y019505D03*
X025654Y019505D03*
X025644Y019505D03*
X025634Y019505D03*
X025624Y019505D03*
X025614Y019505D03*
X025604Y019505D03*
X025594Y019505D03*
X025584Y019505D03*
X025574Y019505D03*
X025564Y019505D03*
X025554Y019505D03*
X025544Y019505D03*
X025534Y019505D03*
X025524Y019505D03*
X025514Y019515D03*
X025504Y019515D03*
X025494Y019515D03*
X025484Y019515D03*
X025474Y019515D03*
X025464Y019515D03*
X025454Y019515D03*
X025434Y019525D03*
X025424Y019525D03*
X025414Y019525D03*
X025404Y019525D03*
X025384Y019535D03*
X025374Y019535D03*
X025354Y019545D03*
X025344Y019545D03*
X025314Y019555D03*
X025284Y019565D03*
X025234Y019585D03*
X025214Y019595D03*
X025044Y020125D03*
X025254Y020265D03*
X025244Y020295D03*
X025234Y020665D03*
X025284Y020765D03*
X024944Y021235D03*
X025294Y021425D03*
X025324Y021435D03*
X025354Y021445D03*
X025384Y021455D03*
X025394Y021455D03*
X025424Y021465D03*
X025434Y021465D03*
X025444Y021465D03*
X025474Y021475D03*
X025484Y021475D03*
X025494Y021475D03*
X025504Y021475D03*
X025514Y021475D03*
X025524Y021475D03*
X025574Y021485D03*
X025584Y021485D03*
X025594Y021485D03*
X025604Y021485D03*
X025614Y021485D03*
X025624Y021485D03*
X025634Y021485D03*
X025644Y021485D03*
X025654Y021485D03*
X025664Y021485D03*
X025674Y021485D03*
X025684Y021485D03*
X025694Y021485D03*
X025734Y021475D03*
X025744Y021475D03*
X025754Y021475D03*
X025764Y021475D03*
X025774Y021475D03*
X025784Y021475D03*
X025794Y021475D03*
X025814Y021465D03*
X025824Y021465D03*
X025834Y021465D03*
X025844Y021465D03*
X025864Y021455D03*
X025874Y021455D03*
X025884Y021455D03*
X025914Y021445D03*
X025934Y021435D03*
X025944Y021435D03*
X025994Y021415D03*
X026004Y020435D03*
X025824Y020445D03*
X025754Y020445D03*
X025744Y020445D03*
D43*
X025924Y020345D03*
X025734Y020225D03*
X025644Y020045D03*
X025634Y019995D03*
X025624Y019945D03*
X025614Y019905D03*
X025644Y019835D03*
X025634Y019785D03*
X025934Y019855D03*
X025924Y019895D03*
X025944Y019805D03*
X026324Y019835D03*
X026334Y019755D03*
X025504Y020285D03*
X025184Y020255D03*
X025174Y020245D03*
X025144Y020225D03*
X025134Y020215D03*
X025104Y020195D03*
X025094Y020185D03*
X025054Y020155D03*
X025014Y020115D03*
X025004Y020115D03*
X025264Y020815D03*
X025254Y020825D03*
X025214Y020875D03*
X025164Y020935D03*
X025104Y021005D03*
X024934Y021155D03*
X024924Y021235D03*
X025134Y021315D03*
X025134Y021385D03*
X024754Y021035D03*
X024744Y021015D03*
X024784Y020945D03*
X025614Y021085D03*
X025914Y021015D03*
X025924Y021055D03*
X025934Y021095D03*
X025954Y021185D03*
X026344Y021135D03*
X025824Y020685D03*
D44*
X025834Y020445D03*
X025274Y020225D03*
X025264Y020245D03*
X025144Y020975D03*
X025124Y020995D03*
X024924Y021155D03*
X024934Y021235D03*
X024764Y021035D03*
X026344Y021215D03*
X026334Y019835D03*
X026324Y019755D03*
X025874Y019525D03*
D45*
X026224Y019705D03*
X026254Y019725D03*
X026264Y019735D03*
X026274Y019745D03*
X026284Y019755D03*
X025224Y020625D03*
X025274Y020765D03*
X024964Y021225D03*
X024974Y021235D03*
X024994Y021255D03*
X025004Y021265D03*
X025014Y021275D03*
X025034Y021285D03*
X025044Y021295D03*
X025074Y021315D03*
X026274Y021245D03*
X026284Y021235D03*
X026304Y021215D03*
X026314Y021205D03*
X026324Y021195D03*
X026334Y021185D03*
X024934Y019785D03*
X024944Y019775D03*
X024884Y019835D03*
D46*
X024994Y019735D03*
X025034Y019705D03*
X025044Y019695D03*
X025054Y019685D03*
X025064Y019685D03*
X025084Y019665D03*
X025094Y019665D03*
X025104Y019655D03*
X025124Y019645D03*
X025154Y019625D03*
X025174Y019615D03*
X025334Y019555D03*
X025394Y019535D03*
X025744Y019515D03*
X025814Y019525D03*
X025864Y019535D03*
X025964Y019565D03*
X025984Y019575D03*
X026014Y019585D03*
X026024Y019585D03*
X026034Y019595D03*
X026044Y019595D03*
X026084Y019615D03*
X026094Y019625D03*
X026114Y019635D03*
X026134Y019645D03*
X026154Y019655D03*
X026164Y019665D03*
X026234Y019705D03*
X026304Y019755D03*
X025804Y020445D03*
X025794Y020445D03*
X025784Y020445D03*
X025764Y020445D03*
X025234Y020325D03*
X025204Y020585D03*
X024764Y020925D03*
X024784Y021045D03*
X024904Y021155D03*
X024954Y021235D03*
X025154Y021365D03*
X025194Y021385D03*
X025204Y021395D03*
X025214Y021395D03*
X025224Y021395D03*
X025234Y021405D03*
X025254Y021415D03*
X025284Y021425D03*
X025304Y021435D03*
X025334Y021445D03*
X025364Y021455D03*
X025374Y021455D03*
X025464Y021475D03*
X025544Y021485D03*
X025714Y021485D03*
X025724Y021485D03*
X025904Y021455D03*
X026124Y021355D03*
X026134Y021345D03*
X026164Y021325D03*
X026184Y021315D03*
X026194Y021305D03*
X026214Y021295D03*
X026224Y021285D03*
X026234Y021275D03*
X026264Y021255D03*
D47*
X026254Y021260D03*
X026244Y021270D03*
X026204Y021300D03*
X026154Y021340D03*
X026294Y021230D03*
X025184Y021380D03*
X025164Y021370D03*
X025124Y021350D03*
X025114Y021340D03*
X025104Y021340D03*
X025094Y021330D03*
X025084Y021320D03*
X025064Y021310D03*
X025054Y021300D03*
X025024Y021280D03*
X024954Y019770D03*
X024974Y019750D03*
X024984Y019740D03*
X025004Y019730D03*
X025014Y019720D03*
X025024Y019710D03*
X025164Y019630D03*
X026064Y019610D03*
X026124Y019640D03*
X026174Y019670D03*
X026184Y019680D03*
X026194Y019680D03*
X026204Y019690D03*
X026214Y019700D03*
X026244Y019720D03*
D48*
X025894Y019550D03*
X025914Y020340D03*
X025264Y020730D03*
X025244Y020700D03*
X025134Y020990D03*
X025144Y021380D03*
X026114Y021360D03*
X025034Y020120D03*
D49*
X024994Y020110D03*
X025074Y020100D03*
X025064Y020160D03*
X025074Y020170D03*
X025084Y020180D03*
X025114Y020200D03*
X025124Y020210D03*
X025154Y020230D03*
X025204Y020270D03*
X025324Y020070D03*
X025334Y020070D03*
X025494Y020290D03*
X025514Y020280D03*
X025524Y020290D03*
X025664Y020110D03*
X025844Y020160D03*
X026014Y020430D03*
X025924Y020520D03*
X025834Y020720D03*
X025844Y020760D03*
X025854Y020800D03*
X025864Y020840D03*
X025874Y020880D03*
X025954Y020890D03*
X025924Y020990D03*
X025944Y021140D03*
X025964Y021220D03*
X025394Y020980D03*
X025314Y020990D03*
X025224Y021000D03*
X025214Y021000D03*
X025154Y020940D03*
X025174Y020920D03*
X025184Y020910D03*
X025194Y020900D03*
X025204Y020890D03*
X025224Y020860D03*
X025234Y020850D03*
X025244Y020840D03*
X025484Y020610D03*
X025494Y020610D03*
X025504Y020610D03*
X025514Y020610D03*
X025524Y020610D03*
X025534Y020610D03*
X025634Y019920D03*
X025954Y019770D03*
X025884Y019570D03*
D50*
X025674Y019920D03*
X025674Y020010D03*
X025664Y020010D03*
X025704Y020030D03*
X025714Y020090D03*
X025884Y020040D03*
X025934Y020070D03*
X025904Y020300D03*
X025904Y020390D03*
X025894Y020410D03*
X025884Y020430D03*
X025894Y020450D03*
X025904Y020470D03*
X025994Y020480D03*
X025994Y020380D03*
X025744Y020650D03*
X025644Y020800D03*
X025704Y020870D03*
X025624Y020890D03*
X025674Y020950D03*
X025614Y020970D03*
X025654Y021030D03*
X025664Y021030D03*
X025604Y021050D03*
X025564Y021250D03*
X025414Y020970D03*
X025404Y020970D03*
X025354Y020980D03*
X025344Y020980D03*
X025334Y020980D03*
X025324Y020980D03*
X025264Y020990D03*
X025254Y020990D03*
X025244Y020990D03*
X025234Y020990D03*
X025174Y021000D03*
X025154Y021000D03*
X025254Y020740D03*
X025474Y020610D03*
X025544Y020610D03*
X025544Y020290D03*
X025474Y020290D03*
X025314Y020170D03*
X025274Y020070D03*
X025264Y020070D03*
X025254Y020070D03*
X025194Y020080D03*
X025184Y020080D03*
X025174Y020080D03*
X025164Y020080D03*
X025114Y020090D03*
X025104Y020090D03*
X025094Y020090D03*
X025084Y020090D03*
X025214Y020290D03*
X024904Y019880D03*
X025834Y020910D03*
X025934Y020950D03*
X025944Y020930D03*
X025964Y020880D03*
X025904Y021000D03*
X025144Y021310D03*
D51*
X024714Y020135D03*
X024724Y020105D03*
D52*
X024724Y020870D03*
D53*
X024684Y020400D03*
D54*
X024674Y020415D03*
D55*
X024664Y020500D03*
D56*
X024654Y020495D03*
D57*
X024624Y020495D03*
D58*
X024614Y020495D03*
D59*
X024604Y020495D03*
D60*
X003347Y000320D02*
X003334Y000300D01*
X003352Y000307D02*
X003359Y000300D01*
X003365Y000307D01*
X003365Y000320D01*
X003374Y000313D02*
X003371Y000310D01*
X003371Y000303D01*
X003374Y000300D01*
X003381Y000300D01*
X003384Y000303D01*
X003384Y000310D01*
X003381Y000313D01*
X003374Y000313D01*
X003389Y000320D02*
X003392Y000320D01*
X003392Y000300D01*
X003389Y000300D02*
X003396Y000300D01*
X003401Y000303D02*
X003405Y000300D01*
X003415Y000300D01*
X003415Y000313D01*
X003420Y000313D02*
X003423Y000313D01*
X003426Y000310D01*
X003430Y000313D01*
X003433Y000310D01*
X003433Y000300D01*
X003438Y000303D02*
X003438Y000310D01*
X003441Y000313D01*
X003448Y000313D01*
X003451Y000310D01*
X003451Y000307D01*
X003438Y000307D01*
X003438Y000303D02*
X003441Y000300D01*
X003448Y000300D01*
X003456Y000300D02*
X003466Y000300D01*
X003470Y000303D01*
X003466Y000307D01*
X003460Y000307D01*
X003456Y000310D01*
X003460Y000313D01*
X003470Y000313D01*
X003475Y000300D02*
X003488Y000320D01*
X003493Y000320D02*
X003507Y000320D01*
X003512Y000320D02*
X003522Y000320D01*
X003525Y000317D01*
X003525Y000303D01*
X003522Y000300D01*
X003512Y000300D01*
X003512Y000320D01*
X003500Y000310D02*
X003493Y000310D01*
X003493Y000300D02*
X003493Y000320D01*
X003530Y000320D02*
X003540Y000320D01*
X003543Y000317D01*
X003543Y000310D01*
X003540Y000307D01*
X003530Y000307D01*
X003537Y000307D02*
X003543Y000300D01*
X003549Y000303D02*
X003562Y000317D01*
X003562Y000303D01*
X003559Y000300D01*
X003552Y000300D01*
X003549Y000303D01*
X003549Y000317D01*
X003552Y000320D01*
X003559Y000320D01*
X003562Y000317D01*
X003567Y000300D02*
X003580Y000320D01*
X003585Y000313D02*
X003589Y000313D01*
X003592Y000310D01*
X003595Y000313D01*
X003599Y000310D01*
X003599Y000300D01*
X003604Y000300D02*
X003610Y000300D01*
X003607Y000300D02*
X003607Y000320D01*
X003604Y000320D01*
X003592Y000310D02*
X003592Y000300D01*
X003585Y000300D02*
X003585Y000313D01*
X003616Y000310D02*
X003616Y000303D01*
X003619Y000300D01*
X003626Y000300D01*
X003629Y000303D01*
X003629Y000310D01*
X003626Y000313D01*
X003619Y000313D01*
X003616Y000310D01*
X003634Y000310D02*
X003634Y000303D01*
X003638Y000300D01*
X003648Y000300D01*
X003648Y000297D02*
X003648Y000313D01*
X003638Y000313D01*
X003634Y000310D01*
X003641Y000293D02*
X003644Y000293D01*
X003648Y000297D01*
X003653Y000303D02*
X003656Y000300D01*
X003663Y000300D01*
X003666Y000303D01*
X003666Y000310D01*
X003663Y000313D01*
X003656Y000313D01*
X003653Y000310D01*
X003653Y000303D01*
X003671Y000303D02*
X003675Y000303D01*
X003675Y000300D01*
X003671Y000300D01*
X003671Y000303D01*
X003681Y000300D02*
X003691Y000300D01*
X003694Y000303D01*
X003694Y000310D01*
X003691Y000313D01*
X003681Y000313D01*
X003681Y000320D02*
X003681Y000300D01*
X003699Y000300D02*
X003699Y000313D01*
X003702Y000313D01*
X003706Y000310D01*
X003709Y000313D01*
X003712Y000310D01*
X003712Y000300D01*
X003717Y000300D02*
X003727Y000300D01*
X003731Y000303D01*
X003731Y000310D01*
X003727Y000313D01*
X003717Y000313D01*
X003717Y000293D01*
X003706Y000300D02*
X003706Y000310D01*
X003530Y000300D02*
X003530Y000320D01*
X003426Y000310D02*
X003426Y000300D01*
X003420Y000300D02*
X003420Y000313D01*
X003401Y000313D02*
X003401Y000303D01*
X003352Y000307D02*
X003352Y000320D01*
X018714Y025910D02*
X018716Y025889D01*
X018721Y025869D01*
X018730Y025850D01*
X018742Y025833D01*
X018757Y025818D01*
X018774Y025806D01*
X018793Y025797D01*
X018813Y025792D01*
X018834Y025790D01*
X018855Y025792D01*
X018875Y025797D01*
X018894Y025806D01*
X018911Y025818D01*
X018926Y025833D01*
X018938Y025850D01*
X018947Y025869D01*
X018952Y025889D01*
X018954Y025910D01*
D61*
X018714Y025910D01*
X018164Y025910D01*
X018954Y025910D02*
X019504Y025910D01*
X020374Y024810D02*
X020374Y024660D01*
X020474Y024660D01*
X020474Y024810D01*
X019504Y022790D02*
X018164Y022790D01*
X017294Y023380D02*
X017294Y023530D01*
X017194Y023530D02*
X017194Y023380D01*
X017294Y023380D01*
X013352Y024714D02*
X013116Y024714D01*
X013116Y025186D02*
X013352Y025186D01*
X010714Y023870D02*
X007954Y023870D01*
X007954Y026490D01*
X008094Y026630D01*
X010714Y026630D01*
X010714Y023870D01*
X008113Y026330D02*
X008115Y026353D01*
X008121Y026376D01*
X008130Y026397D01*
X008143Y026417D01*
X008159Y026434D01*
X008177Y026448D01*
X008197Y026459D01*
X008219Y026467D01*
X008242Y026471D01*
X008266Y026471D01*
X008289Y026467D01*
X008311Y026459D01*
X008331Y026448D01*
X008349Y026434D01*
X008365Y026417D01*
X008378Y026397D01*
X008387Y026376D01*
X008393Y026353D01*
X008395Y026330D01*
X008393Y026307D01*
X008387Y026284D01*
X008378Y026263D01*
X008365Y026243D01*
X008349Y026226D01*
X008331Y026212D01*
X008311Y026201D01*
X008289Y026193D01*
X008266Y026189D01*
X008242Y026189D01*
X008219Y026193D01*
X008197Y026201D01*
X008177Y026212D01*
X008159Y026226D01*
X008143Y026243D01*
X008130Y026263D01*
X008121Y026284D01*
X008115Y026307D01*
X008113Y026330D01*
X012197Y029032D02*
X012197Y029268D01*
X012670Y029268D02*
X012670Y029032D01*
X013297Y029032D02*
X013297Y029268D01*
X013770Y029268D02*
X013770Y029032D01*
X014434Y029350D02*
X014434Y028550D01*
X014534Y028450D01*
X015334Y028450D01*
X015434Y028550D01*
X015534Y028450D01*
X016334Y028450D01*
X016434Y028550D01*
X016434Y029350D01*
X016334Y029450D01*
X015534Y029450D01*
X015434Y029350D01*
X015334Y029450D01*
X014534Y029450D01*
X014434Y029350D01*
X017397Y029268D02*
X017397Y029032D01*
X017870Y029032D02*
X017870Y029268D01*
X018297Y029268D02*
X018297Y029032D01*
X018770Y029032D02*
X018770Y029268D01*
X019534Y029350D02*
X019534Y028550D01*
X019634Y028450D01*
X020434Y028450D01*
X020534Y028550D01*
X020634Y028450D01*
X021434Y028450D01*
X021534Y028550D01*
X021534Y029350D01*
X021434Y029450D01*
X020634Y029450D01*
X020534Y029350D01*
X020434Y029450D01*
X019634Y029450D01*
X019534Y029350D01*
X025116Y029186D02*
X025352Y029186D01*
X025352Y028714D02*
X025116Y028714D01*
X025116Y028086D02*
X025352Y028086D01*
X025352Y027614D02*
X025116Y027614D01*
X027097Y024068D02*
X027097Y023832D01*
X027570Y023832D02*
X027570Y024068D01*
X030264Y022221D02*
X030264Y021580D01*
X030584Y021580D01*
X030691Y021687D01*
X030691Y021794D01*
X030584Y021900D01*
X030264Y021900D01*
X030584Y021900D02*
X030691Y022007D01*
X030691Y022114D01*
X030584Y022221D01*
X030264Y022221D01*
X030370Y017121D02*
X030264Y017014D01*
X030264Y016587D01*
X030370Y016480D01*
X030584Y016480D01*
X030691Y016587D01*
X030691Y016800D01*
X030477Y016800D01*
X030691Y017014D02*
X030584Y017121D01*
X030370Y017121D01*
X031416Y015386D02*
X031652Y015386D01*
X031652Y014914D02*
X031416Y014914D01*
X031297Y012468D02*
X031297Y012232D01*
X030870Y012232D02*
X030870Y012468D01*
X030397Y012468D02*
X030397Y012232D01*
X031770Y012232D02*
X031770Y012468D01*
X028652Y011586D02*
X028416Y011586D01*
X028416Y011114D02*
X028652Y011114D01*
X027370Y008668D02*
X027370Y008432D01*
X026897Y008432D02*
X026897Y008668D01*
X025752Y010014D02*
X025516Y010014D01*
X025516Y010486D02*
X025752Y010486D01*
X025752Y006886D02*
X025516Y006886D01*
X025516Y006414D02*
X025752Y006414D01*
X027116Y005386D02*
X027352Y005386D01*
X027352Y004914D02*
X027116Y004914D01*
X027116Y004186D02*
X027352Y004186D01*
X027352Y003714D02*
X027116Y003714D01*
X029797Y005132D02*
X029797Y005368D01*
X030270Y005368D02*
X030270Y005132D01*
X030797Y005132D02*
X030797Y005368D01*
X031270Y005368D02*
X031270Y005132D01*
X031797Y005132D02*
X031797Y005368D01*
X032270Y005368D02*
X032270Y005132D01*
X023352Y005014D02*
X023116Y005014D01*
X023116Y005486D02*
X023352Y005486D01*
X023352Y006014D02*
X023116Y006014D01*
X023116Y006486D02*
X023352Y006486D01*
X021552Y006486D02*
X021316Y006486D01*
X021316Y006014D02*
X021552Y006014D01*
X021552Y005486D02*
X021316Y005486D01*
X021316Y005014D02*
X021552Y005014D01*
X019752Y005014D02*
X019516Y005014D01*
X019516Y005486D02*
X019752Y005486D01*
X019752Y006014D02*
X019516Y006014D01*
X019516Y006486D02*
X019752Y006486D01*
X016891Y004400D02*
X016464Y004400D01*
X016677Y004614D02*
X016677Y004187D01*
X016034Y003950D02*
X016034Y004750D01*
X015934Y004850D01*
X015134Y004850D01*
X015034Y004750D01*
X015034Y003950D01*
X015134Y003850D01*
X015034Y003750D01*
X015034Y002950D01*
X015134Y002850D01*
X015934Y002850D01*
X016034Y002950D01*
X016034Y003750D01*
X015934Y003850D01*
X016034Y003950D01*
X016464Y003400D02*
X016891Y003400D01*
X019516Y001586D02*
X019752Y001586D01*
X019752Y001114D02*
X019516Y001114D01*
X011470Y005832D02*
X011470Y006068D01*
X010997Y006068D02*
X010997Y005832D01*
X008552Y008914D02*
X008316Y008914D01*
X008316Y009386D02*
X008552Y009386D01*
X008597Y012532D02*
X008597Y012768D01*
X009070Y012768D02*
X009070Y012532D01*
X004804Y009534D02*
X004804Y009321D01*
X004697Y009214D01*
X004270Y009214D01*
X004163Y009321D01*
X004163Y009534D01*
X004270Y009641D01*
X004697Y009641D01*
X004804Y009534D01*
X004804Y008999D02*
X004804Y008892D01*
X004697Y008892D01*
X004697Y008999D01*
X004804Y008999D01*
X004377Y008674D02*
X004804Y008461D01*
X004377Y008247D01*
X004377Y007385D02*
X004804Y006958D01*
X004697Y006741D02*
X004483Y006741D01*
X004377Y006634D01*
X004377Y006420D01*
X004483Y006314D01*
X004697Y006314D01*
X004804Y006420D01*
X004804Y006634D01*
X004697Y006741D01*
X004377Y006958D02*
X004804Y007385D01*
X004697Y006096D02*
X004590Y006096D01*
X004483Y005989D01*
X004483Y005669D01*
X004377Y005452D02*
X004804Y005452D01*
X004804Y005131D01*
X004697Y005025D01*
X004377Y005025D01*
X004483Y004807D02*
X004804Y004807D01*
X004804Y004594D02*
X004483Y004594D01*
X004377Y004700D01*
X004483Y004807D01*
X004483Y004594D02*
X004377Y004487D01*
X004377Y004380D01*
X004804Y004380D01*
X004804Y005669D02*
X004163Y005669D01*
X004163Y005989D01*
X004270Y006096D01*
X004377Y006096D01*
X004483Y005989D01*
X004697Y006096D02*
X004804Y005989D01*
X004804Y005669D01*
X016016Y012914D02*
X016252Y012914D01*
X016252Y013386D02*
X016016Y013386D01*
X016016Y014314D02*
X016252Y014314D01*
X016252Y014786D02*
X016016Y014786D01*
X016016Y015914D02*
X016252Y015914D01*
X016252Y016386D02*
X016016Y016386D01*
X017434Y016350D02*
X017434Y015550D01*
X017534Y015450D01*
X017434Y015350D01*
X017434Y014550D01*
X017534Y014450D01*
X018334Y014450D01*
X018434Y014550D01*
X018434Y015350D01*
X018334Y015450D01*
X018434Y015550D01*
X018434Y016350D01*
X018334Y016450D01*
X017534Y016450D01*
X017434Y016350D01*
X019616Y017814D02*
X019852Y017814D01*
X019852Y018286D02*
X019616Y018286D01*
X021697Y015668D02*
X021697Y015432D01*
X022170Y015432D02*
X022170Y015668D01*
X019770Y013068D02*
X019770Y012832D01*
X019297Y012832D02*
X019297Y013068D01*
X017952Y013114D02*
X017716Y013114D01*
X017716Y012586D02*
X017952Y012586D01*
X017952Y012114D02*
X017716Y012114D01*
X017716Y013586D02*
X017952Y013586D01*
X019297Y011668D02*
X019297Y011432D01*
X019770Y011432D02*
X019770Y011668D01*
D62*
X026125Y021665D02*
X026125Y021713D01*
X026174Y021762D01*
X026125Y021810D01*
X026174Y021858D01*
X026319Y021858D01*
X026319Y021762D02*
X026174Y021762D01*
X026125Y021665D02*
X026319Y021665D01*
X026270Y021960D02*
X026174Y021960D01*
X026125Y022008D01*
X026125Y022105D01*
X026174Y022153D01*
X026222Y022153D01*
X026222Y021960D01*
X026270Y021960D02*
X026319Y022008D01*
X026319Y022105D01*
X026270Y022254D02*
X026319Y022303D01*
X026319Y022399D01*
X026270Y022448D01*
X026174Y022448D01*
X026125Y022399D01*
X026125Y022303D01*
X026174Y022254D01*
X026270Y022254D01*
X026270Y022549D02*
X026125Y022549D01*
X026270Y022549D02*
X026319Y022597D01*
X026270Y022646D01*
X026319Y022694D01*
X026270Y022742D01*
X026125Y022742D01*
X026174Y022844D02*
X026125Y022892D01*
X026125Y022989D01*
X026174Y023037D01*
X026270Y023037D01*
X026319Y022989D01*
X026319Y022892D01*
X026270Y022844D01*
X026174Y022844D01*
X026222Y023138D02*
X026125Y023235D01*
X026125Y023283D01*
X026028Y023384D02*
X026319Y023384D01*
X026222Y023384D02*
X026125Y023529D01*
X026174Y023629D02*
X026125Y023678D01*
X026125Y023823D01*
X026222Y023774D02*
X026222Y023678D01*
X026174Y023629D01*
X026319Y023629D02*
X026319Y023774D01*
X026270Y023823D01*
X026222Y023774D01*
X026174Y023924D02*
X026125Y023972D01*
X026125Y024069D01*
X026174Y024117D01*
X026319Y024117D01*
X026270Y024219D02*
X026319Y024267D01*
X026319Y024364D01*
X026270Y024412D01*
X026174Y024412D01*
X026125Y024364D01*
X026125Y024267D01*
X026174Y024219D01*
X026270Y024219D01*
X026319Y024513D02*
X026319Y024658D01*
X026270Y024707D01*
X026174Y024707D01*
X026125Y024658D01*
X026125Y024513D01*
X026415Y024513D01*
X026319Y024808D02*
X026319Y024856D01*
X026270Y024856D01*
X026270Y024808D01*
X026319Y024808D01*
X026270Y024955D02*
X026319Y025004D01*
X026319Y025100D01*
X026270Y025149D01*
X026174Y025149D01*
X026125Y025100D01*
X026125Y025004D01*
X026174Y024955D01*
X026270Y024955D01*
X026222Y025250D02*
X026125Y025347D01*
X026125Y025395D01*
X026174Y025495D02*
X026125Y025544D01*
X026125Y025689D01*
X026367Y025689D01*
X026415Y025641D01*
X026415Y025592D01*
X026319Y025544D02*
X026319Y025689D01*
X026319Y025544D02*
X026270Y025495D01*
X026174Y025495D01*
X026125Y025250D02*
X026319Y025250D01*
X026319Y023924D02*
X026028Y023924D01*
X026319Y023529D02*
X026222Y023384D01*
X026319Y023138D02*
X026125Y023138D01*
X017722Y025943D02*
X017409Y026257D01*
X017566Y026257D02*
X017566Y025943D01*
X017409Y025943D02*
X017722Y026257D01*
X017722Y026100D02*
X017409Y026100D01*
D63*
X017224Y018578D02*
X016668Y018578D01*
X017224Y018578D02*
X017224Y018247D01*
X017224Y017453D02*
X017224Y017122D01*
X016668Y017122D01*
X016043Y017622D02*
X016043Y018078D01*
X007660Y017037D02*
X007660Y010463D01*
X004077Y010463D01*
X004077Y017037D01*
X007660Y017037D01*
X004864Y017037D02*
X004864Y010463D01*
X004038Y012411D02*
X001636Y012411D01*
X001518Y012608D01*
X001518Y014892D01*
X001636Y015089D01*
X004038Y015089D01*
X003752Y015049D02*
X003959Y012451D01*
X003762Y012451D02*
X003555Y015049D01*
X003359Y015049D02*
X003565Y012451D01*
X003368Y012451D02*
X003162Y015049D01*
X002965Y015049D02*
X003171Y012451D01*
X002975Y012451D02*
X002768Y015049D01*
X002571Y015049D02*
X002778Y012451D01*
X002581Y012451D02*
X002374Y015049D01*
X002177Y015049D02*
X002384Y012451D01*
X002187Y012451D02*
X001981Y015049D01*
X001784Y015049D02*
X001990Y012451D01*
X001794Y012451D02*
X001587Y014961D01*
X001518Y014892D02*
X000140Y014892D01*
X000140Y012608D01*
X001518Y012608D01*
X003290Y016604D02*
X004038Y016604D01*
X004077Y017037D02*
X003290Y017037D01*
X003290Y016604D01*
X005778Y023541D02*
X006290Y023541D01*
X006290Y024959D02*
X005778Y024959D01*
X025104Y008686D02*
X025104Y008214D01*
X025616Y007466D02*
X025852Y007466D01*
X026364Y008214D02*
X026364Y008686D01*
X025852Y009434D02*
X025616Y009434D01*
X023403Y003210D02*
X023065Y003210D01*
X023553Y002756D02*
X023553Y002544D01*
X023403Y002090D02*
X023065Y002090D01*
X019953Y002544D02*
X019953Y002756D01*
X019803Y003210D02*
X019465Y003210D01*
X019465Y002090D02*
X019803Y002090D01*
X012523Y003194D02*
X007944Y003194D01*
X007944Y004906D01*
X012523Y004906D01*
X012523Y003194D01*
X008753Y006044D02*
X008753Y006256D01*
X008603Y006710D02*
X008265Y006710D01*
X008265Y005590D02*
X008603Y005590D01*
X028361Y022610D02*
X028361Y025090D01*
X029306Y025090D01*
X029306Y022610D01*
X028361Y022610D01*
X031034Y022100D02*
X031034Y021600D01*
X031284Y021350D01*
X031034Y021100D01*
X031034Y020600D01*
X031284Y020350D01*
X031034Y020100D01*
X031034Y019600D01*
X031284Y019350D01*
X031034Y019100D01*
X031034Y018600D01*
X031284Y018350D01*
X031034Y018100D01*
X031034Y017600D01*
X031284Y017350D01*
X031034Y017100D01*
X031034Y016600D01*
X031284Y016350D01*
X031784Y016350D01*
X032034Y016600D01*
X032034Y017100D01*
X031784Y017350D01*
X032034Y017600D01*
X032034Y018100D01*
X031784Y018350D01*
X032034Y018600D01*
X032034Y019100D01*
X031784Y019350D01*
X032034Y019600D01*
X032034Y020100D01*
X031784Y020350D01*
X032034Y020600D01*
X032034Y021100D01*
X031784Y021350D01*
X032034Y021600D01*
X032034Y022100D01*
X031784Y022350D01*
X031284Y022350D01*
X031034Y022100D01*
X028522Y026950D02*
X027546Y026950D01*
X027034Y027344D02*
X027034Y028556D01*
X027546Y028950D02*
X028534Y028950D01*
X029034Y028556D02*
X029034Y027344D01*
X027534Y027950D02*
X027536Y027994D01*
X027542Y028038D01*
X027552Y028081D01*
X027565Y028123D01*
X027582Y028164D01*
X027603Y028203D01*
X027627Y028240D01*
X027654Y028275D01*
X027684Y028307D01*
X027717Y028337D01*
X027753Y028363D01*
X027790Y028387D01*
X027830Y028406D01*
X027871Y028423D01*
X027914Y028435D01*
X027957Y028444D01*
X028001Y028449D01*
X028045Y028450D01*
X028089Y028447D01*
X028133Y028440D01*
X028176Y028429D01*
X028218Y028415D01*
X028258Y028397D01*
X028297Y028375D01*
X028333Y028351D01*
X028367Y028323D01*
X028399Y028292D01*
X028428Y028258D01*
X028454Y028222D01*
X028476Y028184D01*
X028495Y028144D01*
X028510Y028102D01*
X028522Y028060D01*
X028530Y028016D01*
X028534Y027972D01*
X028534Y027928D01*
X028530Y027884D01*
X028522Y027840D01*
X028510Y027798D01*
X028495Y027756D01*
X028476Y027716D01*
X028454Y027678D01*
X028428Y027642D01*
X028399Y027608D01*
X028367Y027577D01*
X028333Y027549D01*
X028297Y027525D01*
X028258Y027503D01*
X028218Y027485D01*
X028176Y027471D01*
X028133Y027460D01*
X028089Y027453D01*
X028045Y027450D01*
X028001Y027451D01*
X027957Y027456D01*
X027914Y027465D01*
X027871Y027477D01*
X027830Y027494D01*
X027790Y027513D01*
X027753Y027537D01*
X027717Y027563D01*
X027684Y027593D01*
X027654Y027625D01*
X027627Y027660D01*
X027603Y027697D01*
X027582Y027736D01*
X027565Y027777D01*
X027552Y027819D01*
X027542Y027862D01*
X027536Y027906D01*
X027534Y027950D01*
D64*
X028713Y009779D02*
X031154Y009779D01*
X031262Y009670D01*
X031262Y007230D01*
X031154Y007121D01*
X028713Y007121D01*
X028605Y007230D01*
X028605Y009670D01*
X028713Y009779D01*
X030485Y009237D02*
X030487Y009267D01*
X030493Y009297D01*
X030502Y009326D01*
X030515Y009353D01*
X030532Y009378D01*
X030551Y009401D01*
X030574Y009422D01*
X030599Y009439D01*
X030625Y009453D01*
X030654Y009463D01*
X030683Y009470D01*
X030713Y009473D01*
X030744Y009472D01*
X030774Y009467D01*
X030803Y009458D01*
X030830Y009446D01*
X030856Y009431D01*
X030880Y009412D01*
X030901Y009390D01*
X030919Y009366D01*
X030934Y009339D01*
X030945Y009311D01*
X030953Y009282D01*
X030957Y009252D01*
X030957Y009222D01*
X030953Y009192D01*
X030945Y009163D01*
X030934Y009135D01*
X030919Y009108D01*
X030901Y009084D01*
X030880Y009062D01*
X030856Y009043D01*
X030830Y009028D01*
X030803Y009016D01*
X030774Y009007D01*
X030744Y009002D01*
X030713Y009001D01*
X030683Y009004D01*
X030654Y009011D01*
X030625Y009021D01*
X030599Y009035D01*
X030574Y009052D01*
X030551Y009073D01*
X030532Y009096D01*
X030515Y009121D01*
X030502Y009148D01*
X030493Y009177D01*
X030487Y009207D01*
X030485Y009237D01*
D65*
G36*
X023457Y012304D02*
X023506Y012421D01*
X023659Y012358D01*
X023610Y012241D01*
X023457Y012304D01*
G37*
G36*
X023664Y012804D02*
X023713Y012921D01*
X023866Y012858D01*
X023817Y012741D01*
X023664Y012804D01*
G37*
G36*
X022520Y011015D02*
X022610Y011105D01*
X022726Y010989D01*
X022636Y010899D01*
X022520Y011015D01*
G37*
G36*
X022137Y010632D02*
X022227Y010722D01*
X022343Y010606D01*
X022253Y010516D01*
X022137Y010632D01*
G37*
G36*
X020687Y009721D02*
X020804Y009770D01*
X020867Y009617D01*
X020750Y009568D01*
X020687Y009721D01*
G37*
G36*
X020187Y009514D02*
X020304Y009563D01*
X020367Y009410D01*
X020250Y009361D01*
X020187Y009514D01*
G37*
X018604Y009229D03*
X018063Y009229D03*
G36*
X016234Y009650D02*
X016351Y009601D01*
X016288Y009448D01*
X016171Y009497D01*
X016234Y009650D01*
G37*
G36*
X015734Y009858D02*
X015851Y009809D01*
X015788Y009656D01*
X015671Y009705D01*
X015734Y009858D01*
G37*
G36*
X014335Y010734D02*
X014425Y010644D01*
X014309Y010528D01*
X014219Y010618D01*
X014335Y010734D01*
G37*
G36*
X013952Y011117D02*
X014042Y011027D01*
X013926Y010911D01*
X013836Y011001D01*
X013952Y011117D01*
G37*
G36*
X012892Y012567D02*
X012941Y012450D01*
X012788Y012387D01*
X012739Y012504D01*
X012892Y012567D01*
G37*
G36*
X012685Y013067D02*
X012734Y012950D01*
X012581Y012887D01*
X012532Y013004D01*
X012685Y013067D01*
G37*
G36*
X012582Y017088D02*
X012533Y016971D01*
X012380Y017034D01*
X012429Y017151D01*
X012582Y017088D01*
G37*
G36*
X012790Y017588D02*
X012741Y017471D01*
X012588Y017534D01*
X012637Y017651D01*
X012790Y017588D01*
G37*
G36*
X013818Y019231D02*
X013728Y019141D01*
X013612Y019257D01*
X013702Y019347D01*
X013818Y019231D01*
G37*
G36*
X014201Y019614D02*
X014111Y019524D01*
X013995Y019640D01*
X014085Y019730D01*
X014201Y019614D01*
G37*
G36*
X015735Y020668D02*
X015618Y020619D01*
X015555Y020772D01*
X015672Y020821D01*
X015735Y020668D01*
G37*
G36*
X016236Y020875D02*
X016119Y020826D01*
X016056Y020979D01*
X016173Y021028D01*
X016236Y020875D01*
G37*
X018163Y021171D03*
X018704Y021171D03*
G36*
X020788Y020519D02*
X020671Y020568D01*
X020734Y020721D01*
X020851Y020672D01*
X020788Y020519D01*
G37*
G36*
X021288Y020312D02*
X021171Y020361D01*
X021234Y020514D01*
X021351Y020465D01*
X021288Y020312D01*
G37*
G36*
X022532Y019283D02*
X022442Y019373D01*
X022558Y019489D01*
X022648Y019399D01*
X022532Y019283D01*
G37*
G36*
X022915Y018900D02*
X022825Y018990D01*
X022941Y019106D01*
X023031Y019016D01*
X022915Y018900D01*
G37*
G36*
X023821Y017302D02*
X023772Y017419D01*
X023925Y017482D01*
X023974Y017365D01*
X023821Y017302D01*
G37*
G36*
X024028Y016802D02*
X023979Y016919D01*
X024132Y016982D01*
X024181Y016865D01*
X024028Y016802D01*
G37*
X011504Y008171D03*
X010963Y008171D03*
D66*
X011234Y008019D03*
X018334Y009381D03*
X024003Y014850D03*
X018434Y021019D03*
X012365Y015050D03*
D67*
G36*
X012816Y017290D02*
X012763Y017163D01*
X012636Y017216D01*
X012689Y017343D01*
X012816Y017290D01*
G37*
G36*
X014111Y019328D02*
X014014Y019231D01*
X013917Y019328D01*
X014014Y019425D01*
X014111Y019328D01*
G37*
G36*
X016044Y020646D02*
X015917Y020593D01*
X015864Y020720D01*
X015991Y020773D01*
X016044Y020646D01*
G37*
G36*
X020989Y020285D02*
X020862Y020338D01*
X020915Y020465D01*
X021042Y020412D01*
X020989Y020285D01*
G37*
G36*
X022629Y018990D02*
X022532Y019087D01*
X022629Y019184D01*
X022726Y019087D01*
X022629Y018990D01*
G37*
G36*
X023799Y016994D02*
X023746Y017121D01*
X023873Y017174D01*
X023926Y017047D01*
X023799Y016994D01*
G37*
G36*
X023430Y012602D02*
X023483Y012729D01*
X023610Y012676D01*
X023557Y012549D01*
X023430Y012602D01*
G37*
G36*
X022227Y010918D02*
X022324Y011015D01*
X022421Y010918D01*
X022324Y010821D01*
X022227Y010918D01*
G37*
G36*
X020379Y009743D02*
X020506Y009796D01*
X020559Y009669D01*
X020432Y009616D01*
X020379Y009743D01*
G37*
G36*
X016032Y009884D02*
X016159Y009831D01*
X016106Y009704D01*
X015979Y009757D01*
X016032Y009884D01*
G37*
G36*
X014239Y011028D02*
X014336Y010931D01*
X014239Y010834D01*
X014142Y010931D01*
X014239Y011028D01*
G37*
G36*
X012915Y012875D02*
X012968Y012748D01*
X012841Y012695D01*
X012788Y012822D01*
X012915Y012875D01*
G37*
D68*
X012212Y014779D03*
X012212Y015321D03*
X024155Y015121D03*
X024155Y014579D03*
D69*
X016712Y017437D02*
X016714Y017465D01*
X016720Y017493D01*
X016729Y017519D01*
X016742Y017545D01*
X016758Y017568D01*
X016778Y017588D01*
X016800Y017606D01*
X016824Y017621D01*
X016850Y017632D01*
X016877Y017640D01*
X016905Y017644D01*
X016933Y017644D01*
X016961Y017640D01*
X016988Y017632D01*
X017014Y017621D01*
X017038Y017606D01*
X017060Y017588D01*
X017080Y017568D01*
X017096Y017545D01*
X017109Y017519D01*
X017118Y017493D01*
X017124Y017465D01*
X017126Y017437D01*
X017124Y017409D01*
X017118Y017381D01*
X017109Y017355D01*
X017096Y017329D01*
X017080Y017306D01*
X017060Y017286D01*
X017038Y017268D01*
X017014Y017253D01*
X016988Y017242D01*
X016961Y017234D01*
X016933Y017230D01*
X016905Y017230D01*
X016877Y017234D01*
X016850Y017242D01*
X016824Y017253D01*
X016800Y017268D01*
X016778Y017286D01*
X016758Y017306D01*
X016742Y017329D01*
X016729Y017355D01*
X016720Y017381D01*
X016714Y017409D01*
X016712Y017437D01*
D70*
X016919Y017437D03*
M02*
